ply
format ascii 1.0
comment Created by Blender 2.79 (sub 0) - www.blender.org, source file: ''
element vertex 8
property float x
property float y
property float z
element face 12
property list uchar uint vertex_indices
end_header
1.000000 1.000000 -1.000000
-1.000000 -1.000000 -1.000000
-1.000000 1.000000 -1.000000
-1.000000 1.000000 1.000000
0.999999 -1.000001 1.000000
1.000000 0.999999 1.000000
1.000000 -1.000000 -1.000000
-1.000000 -1.000000 1.000000
3 0 1 2
3 3 4 5
3 5 6 0
3 4 1 6
3 1 3 2
3 0 3 5
3 0 6 1
3 3 7 4
3 5 4 6
3 4 7 1
3 1 7 3
3 0 2 3
